<svg width="181" height="175" viewBox="0 0 181 175" fill="none" xmlns="http://www.w3.org/2000/svg">
<path d="M114.316 60.8302C103.084 52.3313 89.6048 44.5688 75.3037 43.5189C61.7397 42.5144 50.2403 49.395 43.6932 61.2369C37.7319 72.0137 35.5125 84.8659 34.6451 97.0603C33.6767 110.692 34.4263 124.841 37.9707 138.115C40.4967 147.507 44.5171 157.57 53.6424 162.246C61.6065 166.342 70.9571 165.108 79.1348 162.496C89.106 159.324 98.3289 153.943 106.931 148.063C115.017 142.574 123.322 136.506 130.039 129.38C138.685 120.214 143.602 108.111 140.391 95.4637C136.692 80.8933 125.432 70.9075 115.178 60.7393C113.799 59.375 111.44 61.2858 112.83 62.6725C121.547 71.3052 131.083 79.5719 135.822 91.2414C139.919 101.297 138.819 111.962 132.863 120.969C127.418 129.16 119.163 135.339 111.357 141.158C103.742 146.811 95.6993 152.039 87.0853 156.051C79.2901 159.696 70.3314 162.817 61.5791 161.589C52.5356 160.304 46.8474 153.637 43.5442 145.476C38.9531 134.195 37.4918 121.543 37.3103 109.496C37.124 97.0231 38.333 84.1673 42.2507 72.3229C46.6024 59.1332 55.6861 47.4426 70.4352 46.5252C85.6967 45.5662 100.751 54.4182 112.533 63.3141C114.126 64.5027 115.887 62.0287 114.316 60.8302Z" fill="#D3CBCF"/>
<path d="M115.2 60.7294C112.499 58.1891 110.035 55.1137 109.446 51.3611C108.962 48.258 109.889 45.1661 111.324 42.4365C114.686 36.0609 120.266 31.0232 124.957 25.66C127.405 22.8794 129.77 19.9748 131.351 16.5639C130.394 16.3226 129.414 16.0911 128.435 15.8597C125.365 30.9663 127.555 50.6552 112.69 59.924C111.052 60.9509 112.979 63.3021 114.627 62.2975C130.318 52.4992 128.21 32.1041 131.453 16.1972C131.818 14.4009 129.204 14.0167 128.526 15.4707C125.473 22.0027 119.459 27.0202 114.845 32.376C110.389 37.5535 105.58 43.9599 106.365 51.2392C106.857 55.7847 109.638 59.6286 112.862 62.6849C114.276 64.0072 116.634 62.0963 115.2 60.7294Z" fill="#D3CBCF"/>
<path d="M116.766 61.7968C125.234 54.3705 136.436 48.6667 147.944 51.3668C147.585 50.5636 147.226 49.7603 146.867 48.957C143.633 54.0168 138.151 57.4313 132.664 59.5894C127.178 61.7475 120.619 62.9926 114.913 60.8582C113.071 60.1823 112.001 63.0164 113.843 63.6922C120.182 66.0527 127.324 64.8677 133.481 62.5442C139.582 60.2182 145.767 56.3558 149.328 50.7214C149.978 49.6812 149.381 48.5828 148.251 48.3115C136 45.4347 123.826 51.5192 114.819 59.4009C113.364 60.7204 115.302 63.0939 116.766 61.7968Z" fill="#D3CBCF"/>
<path d="M113.975 60.6617C97.1204 53.3643 90.7204 32.6923 99.0621 16.7285C98.1979 16.8739 97.3336 17.0192 96.4816 17.1324C99.2901 20.2676 102.415 23.1008 105.201 26.2458C107.854 29.2099 110.629 32.6276 110.954 36.7392C111.115 38.7021 114.089 38.2292 113.961 36.2787C113.279 27.5077 104.219 21.1968 98.8198 15.1769C97.987 14.2641 96.7687 14.5677 96.2393 15.5808C87.1195 33.0704 94.675 55.5551 112.918 63.4635C114.711 64.2682 115.781 61.4342 113.975 60.6617Z" fill="#D3CBCF"/>
<path d="M69.6154 53.7185C67.9258 55.7589 67.3974 58.3779 66.797 60.8951C66.7175 61.2519 66.9148 61.7527 67.143 62.0255C67.3711 62.2983 67.7741 62.5466 68.1537 62.5643C68.5654 62.5944 68.9815 62.5155 69.2757 62.2234C69.6019 61.9437 69.7235 61.6216 69.8051 61.2103C69.7908 61.297 69.7013 61.6315 69.8051 61.2103C69.8194 61.1236 69.8559 61.027 69.8702 60.9403C69.9089 60.7891 69.9375 60.6157 69.9761 60.4645C70.0534 60.1623 70.1207 59.8377 70.2201 59.5255C70.3725 58.9755 70.5248 58.4255 70.7093 57.8879C70.7844 57.6402 70.8916 57.4049 70.9988 57.1695C71.0574 57.063 71.106 56.9342 71.1646 56.8277C71.1889 56.7633 71.2132 56.6989 71.2475 56.6568C71.3768 56.4116 71.0595 57.0085 71.1889 56.7633C71.4575 56.2952 71.7461 55.8717 72.0667 55.4606C72.5688 54.8614 72.3633 53.7485 71.6957 53.3241C70.996 52.8872 70.1418 53.0549 69.6154 53.7185Z" fill="#D3CBCF"/>
<path d="M95.2334 68.5041C94.8935 69.9411 94.3067 71.3011 93.6458 72.6139C93.5993 72.6882 93.575 72.7526 93.5286 72.8269C93.6336 72.6461 93.5872 72.7204 93.5165 72.8591C93.4336 73.03 93.3407 73.1786 93.2578 73.3495C93.0821 73.669 92.8842 73.9984 92.6984 74.2956C92.3027 74.9544 91.8848 75.6231 91.4669 76.2918C91.049 76.9606 91.0961 77.9568 91.8379 78.4284C92.4834 78.8627 93.496 78.8117 93.9603 78.0687C95.6097 75.4038 97.3377 72.6769 98.0805 69.5874C98.1842 69.1662 98.2194 68.8292 98.0399 68.4275C97.8902 68.0928 97.5458 67.7381 97.2027 67.6238C96.4943 67.405 95.4287 67.6939 95.2334 68.5041Z" fill="#D3CBCF"/>
<path d="M122.918 91.95C122.895 92.2548 122.872 92.5596 122.848 92.8644C122.832 93.0057 122.815 93.1469 122.777 93.298C122.762 93.3848 122.738 93.4492 122.724 93.5359C122.722 93.5904 122.647 93.8382 122.712 93.5681C122.777 93.298 122.702 93.5458 122.7 93.6003C122.685 93.687 122.661 93.7514 122.647 93.8382C122.608 93.9893 122.547 94.1503 122.509 94.3014C122.421 94.5814 122.302 94.8489 122.183 95.1165C122.112 95.2552 122.063 95.384 121.993 95.5227C121.875 95.7357 121.993 95.5227 122.029 95.4261C121.983 95.5004 121.958 95.5648 121.912 95.6391C121.76 95.8942 121.587 96.1592 121.413 96.4242C121.24 96.6892 121.034 96.9418 120.85 97.1844C120.725 97.3206 120.623 97.4469 120.498 97.5831C120.407 97.6772 120.206 97.8207 120.52 97.5732C120.441 97.6351 120.395 97.7094 120.316 97.7713C120.022 98.0634 119.814 98.3705 119.787 98.7843C119.739 99.1535 119.873 99.6295 120.133 99.9147C120.643 100.463 121.665 100.729 122.276 100.135C123.386 98.996 124.316 97.7504 124.993 96.2963C125.576 95.0454 125.891 93.6728 125.946 92.3099C125.988 91.5144 125.457 90.6812 124.601 90.6085C123.81 90.5606 122.962 91.1001 122.918 91.95Z" fill="#D3CBCF"/>
<path d="M74.3047 78.0467C73.2327 80.3999 72.1465 82.8399 72.0298 85.489C71.9871 86.2844 72.5189 87.1176 73.3744 87.1903C74.1436 87.2481 75.013 86.6988 75.0579 85.8488C75.0719 85.2268 75.1722 84.6197 75.2946 84.0028C75.2968 83.9482 75.3211 83.8838 75.3454 83.8194C75.2859 84.2208 75.3068 83.9706 75.3211 83.8838C75.3597 83.7327 75.3984 83.5816 75.437 83.4304C75.5143 83.1282 75.6236 82.8383 75.7109 82.5584C76.1163 81.3866 76.6279 80.2744 77.1396 79.1622C77.4833 78.4463 77.0024 77.4298 76.2619 77.1986C75.4372 76.8979 74.6727 77.2664 74.3047 78.0467Z" fill="#D3CBCF"/>
<path d="M97.158 94.3089C96.6228 96.5561 95.5817 98.6814 94.6069 100.777C94.2732 101.515 94.7442 102.509 95.4847 102.741C96.2994 103.019 97.086 102.641 97.4319 101.87C98.3845 99.7845 99.4256 97.6592 99.983 95.4021C100.087 94.9809 100.122 94.6439 99.9424 94.2423C99.7928 93.9076 99.4484 93.5528 99.1052 93.4385C98.73 93.3117 98.2962 93.2915 97.9521 93.4721C97.6202 93.6204 97.2496 93.9199 97.158 94.3089Z" fill="#D3CBCF"/>
<path d="M53.7559 88.1428C52.8035 92.1293 51.3994 95.9964 50.4469 99.9829C50.2637 100.761 50.4879 101.678 51.3247 101.946C52.0209 102.197 53.0865 101.909 53.2719 101.076C54.2243 97.0896 55.6284 93.2225 56.5809 89.236C56.7641 88.458 56.5399 87.5408 55.7031 87.2724C55.0168 87.0437 53.9513 87.3326 53.7559 88.1428Z" fill="#D3CBCF"/>
<path d="M76.5177 104.794C76.0432 106.88 76.0003 109.041 75.5258 111.127C75.4463 111.484 75.6437 111.985 75.8718 112.258C76.1 112.53 76.5029 112.779 76.8825 112.796C77.2942 112.826 77.7103 112.748 78.0045 112.455C78.3308 112.176 78.4523 111.854 78.5339 111.442C79.0084 109.356 79.0513 107.195 79.5258 105.109C79.6053 104.752 79.408 104.252 79.1798 103.979C78.9517 103.706 78.5487 103.458 78.1691 103.44C77.7574 103.41 77.3413 103.489 77.0471 103.781C76.7308 104.083 76.5993 104.383 76.5177 104.794Z" fill="#D3CBCF"/>
<path d="M107.792 117.8C106.155 120.433 104.74 123.207 102.88 125.699C102.398 126.343 102.573 127.388 103.251 127.835C103.961 128.294 104.867 128.184 105.373 127.475C107.223 124.962 108.648 122.21 110.285 119.577C110.703 118.909 110.656 117.912 109.914 117.441C109.257 117.039 108.244 117.09 107.792 117.8Z" fill="#D3CBCF"/>
<path d="M61.539 116.898C60.8978 119.62 59.785 122.179 59.1217 124.912C59.0179 125.333 58.9827 125.67 59.1623 126.072C59.3119 126.407 59.6563 126.761 59.9995 126.876C60.6957 127.127 61.7613 126.838 61.9466 126.005C62.5878 123.282 63.7006 120.723 64.3639 117.991C64.4677 117.569 64.5029 117.232 64.3233 116.831C64.1737 116.496 63.8293 116.141 63.4862 116.027C62.7999 115.798 61.7344 116.087 61.539 116.898Z" fill="#D3CBCF"/>
<path d="M86.9213 126.701C85.7322 129.268 84.5973 131.836 83.5466 134.475C83.2671 135.215 83.6517 136.195 84.4244 136.438C85.207 136.704 86.0578 136.351 86.3715 135.568C87.4001 132.939 88.5571 130.361 89.7463 127.795C90.08 127.056 89.609 126.062 88.8685 125.831C88.0538 125.553 87.2672 125.931 86.9213 126.701Z" fill="#D3CBCF"/>
<path d="M63.0859 142.095C62.0382 144.384 61.0027 146.64 59.9451 148.907C59.6114 149.645 60.0824 150.639 60.8229 150.87C61.6376 151.149 62.4242 150.77 62.7701 150C63.8277 147.734 64.8532 145.455 65.9108 143.188C66.2445 142.45 65.7736 141.456 65.033 141.225C64.2405 140.936 63.4539 141.315 63.0859 142.095Z" fill="#D3CBCF"/>
<path d="M48.5496 133.332C48.5356 133.954 48.4353 134.561 48.3128 135.178C48.3107 135.233 48.2864 135.297 48.2621 135.362C48.3216 134.96 48.3007 135.211 48.2864 135.297C48.2477 135.448 48.2091 135.6 48.1705 135.751C48.0932 136.053 47.9838 136.343 47.8966 136.623C47.4912 137.795 46.9795 138.907 46.4678 140.019C46.1341 140.757 46.6051 141.751 47.3456 141.983C48.1603 142.261 48.9469 141.883 49.2928 141.112C50.3647 138.759 51.451 136.319 51.5677 133.67C51.6103 132.874 51.0786 132.041 50.2231 131.969C49.4418 131.943 48.5723 132.492 48.5496 133.332Z" fill="#D3CBCF"/>
<path d="M85.3268 144.04C85.1314 144.85 84.8498 145.645 84.4397 146.391C84.4983 146.284 84.5469 146.155 84.6276 146.039C84.1346 146.955 83.5032 147.8 82.8198 148.587C82.592 148.85 82.4961 149.348 82.5472 149.7C82.6083 150.074 82.852 150.5 83.1587 150.711C83.4875 150.912 83.8728 151.062 84.2667 150.993C84.6828 150.914 84.9847 150.698 85.2689 150.384C86.5694 148.839 87.6594 147.12 88.1296 145.143C88.2334 144.722 88.2686 144.385 88.089 143.983C87.9394 143.648 87.595 143.294 87.2518 143.179C86.8766 143.052 86.4428 143.032 86.0987 143.213C85.7889 143.351 85.4184 143.651 85.3268 144.04Z" fill="#D3CBCF"/>
<path d="M128.309 109.593C127.119 112.159 125.631 114.591 124.934 117.366C124.83 117.787 124.795 118.124 124.974 118.526C125.124 118.86 125.468 119.215 125.812 119.33C126.508 119.581 127.573 119.292 127.759 118.459C128.424 115.672 129.944 113.252 131.134 110.686C131.477 109.97 130.996 108.953 130.256 108.722C129.431 108.422 128.677 108.812 128.309 109.593Z" fill="#D3CBCF"/>
<path d="M51.227 67.4001C50.1126 69.1833 49.2286 71.1848 48.722 73.2586C48.6182 73.6798 48.583 74.0168 48.7626 74.4184C48.9122 74.7531 49.2566 75.1078 49.5997 75.2222C49.975 75.3489 50.4088 75.3692 50.7529 75.1886C51.0748 75.0179 51.4453 74.7184 51.5469 74.3518C51.9376 72.7314 52.5752 71.1881 53.3611 69.7391C53.3025 69.8456 53.2539 69.9745 53.1732 70.0908C53.3268 69.7812 53.4904 69.4939 53.6761 69.1967C53.8961 68.8574 53.9977 68.4907 53.9487 68.0843C53.8876 67.71 53.6439 67.2835 53.3372 67.0726C52.6917 66.6382 51.6792 66.6893 51.227 67.4001Z" fill="#D3CBCF"/>
<path d="M114.575 59.5095C116.239 54.8571 117.819 50.1352 119.9 45.6443C120.233 44.9061 119.75 43.9441 119.022 43.6807C118.219 43.3701 117.408 43.8129 117.075 44.5511C115.004 49.0644 113.436 53.754 111.761 58.4387C111.491 59.2017 111.868 60.1041 112.638 60.4023C113.399 60.6781 114.316 60.2949 114.575 59.5095Z" fill="#D3CBCF"/>
</svg>
