<svg width="284" height="340" viewBox="0 0 284 340" fill="none" xmlns="http://www.w3.org/2000/svg">
<path d="M-176.334 422.504C-130.247 411.95 -85.534 393.216 -53.5881 356.987C-13.6458 311.696 2.7332 252.111 28.5726 198.779C35.8542 183.724 44.2001 169.398 53.3565 155.407C59.5239 145.968 67.3834 133.405 78.5583 129.541C77.6298 128.896 76.7013 128.25 75.8131 127.586C75.5667 133.022 71.7714 137.41 68.3193 141.323C64.9292 145.158 61.4949 148.843 58.4316 152.967C50.9433 163.088 44.6189 174.21 39.0313 185.504C31.0818 201.551 23.882 218.546 19.0496 235.815C16.588 244.617 14.5344 253.939 15.6163 263.083C15.7473 264.17 16.8736 264.822 17.899 264.666C29.6402 263.055 41.176 259.928 52.6648 257.017C66.4015 253.533 80.0755 249.858 93.9009 246.675C99.5907 245.367 105.288 244.129 111.063 243.221C114.747 242.644 118.885 241.833 122.627 242.449C123.345 242.581 124.375 242.863 124.471 242.965C124.596 243.078 124.518 242.748 124.446 243.123C124.424 243.182 124.061 244.521 123.944 244.746C123.105 246.11 118.364 247.468 116.204 248.075C101.125 252.3 85.4323 254.49 70.1155 257.556C59.6248 259.664 49.1785 261.922 38.7807 264.5C33.3071 265.854 27.8595 267.319 22.4487 268.864C20.8782 269.321 18.809 269.592 17.4411 270.492C15.8795 271.555 14.5 273.656 13.3204 275.129C1.83424 289.195 -6.1535 306.065 -14.5171 322.059C-23.8359 339.909 -34.3295 356.789 -48.2908 371.411C-64.6748 388.519 -84.1219 402.549 -105.587 412.481C-126.598 422.179 -148.959 428.496 -170.649 436.335C-169.799 436.65 -168.919 436.977 -168.068 437.292C-170.835 432.514 -173.326 426.902 -172.655 421.221C-172.361 418.717 -176.271 418.374 -176.565 420.877C-177.267 427.183 -174.723 433.552 -171.639 438.916C-171.069 439.898 -170.141 440.275 -169.058 439.873C-148.912 432.6 -128.258 426.656 -108.602 418.096C-88.6656 409.407 -70.5025 397.581 -54.4679 382.856C-38.8132 368.526 -26.0301 351.591 -15.9111 332.931C-6.86042 316.254 1.10756 298.807 12.0514 283.234C14.3621 279.97 17.2105 274.895 20.9983 273.318C26.3122 271.134 32.4679 270.099 38.0329 268.678C48.8517 265.955 59.7776 263.573 70.7261 261.4C86.6213 258.214 103.073 256.138 118.605 251.41C121.427 250.546 125.832 249.466 127.338 246.573C128.26 244.805 128.905 242.163 127.381 240.426C125.58 238.352 122.104 238.369 119.616 238.419C114.839 238.524 110.097 239.346 105.432 240.23C78.181 245.337 51.7786 254.277 24.561 259.565C22.1186 260.033 19.6578 260.461 17.1895 260.819C17.9638 261.34 18.6979 261.88 19.4722 262.402C18.4947 253.966 20.4583 245.248 22.7166 237.174C25.2907 227.979 28.6679 219.047 32.2981 210.243C40.3234 190.841 49.4225 171.602 62.0153 154.73C68.047 146.649 79.2193 138.831 79.712 127.959C79.7959 126.382 78.3503 125.512 76.9667 126.004C67.5451 129.278 60.5528 138.511 54.9271 146.308C47.2021 156.978 40.2555 168.338 33.9358 179.898C19.55 206.288 8.68178 234.351 -3.12181 261.966C-15.2058 290.248 -28.6181 317.703 -46.8912 342.519C-61.2906 362.104 -79.7648 378.37 -100.81 390.501C-124.442 404.119 -150.542 412.601 -177.014 418.668C-179.449 419.206 -178.809 423.061 -176.334 422.504Z" fill="#D7D7D7"/>
<path d="M39.3464 257.843C38.6077 242.461 46.6084 227.807 56.7137 216.746C67.1479 205.338 81.3056 195.947 96.7151 193.351C104.903 191.964 112.907 193.055 120.55 196.29C130.35 200.458 139.046 205.892 150.106 204.498C159.973 203.264 169.265 199.439 178.96 197.405C186.372 195.864 194.116 195.854 201.484 197.58C214.981 200.773 226.853 210.064 230.709 223.787C235.278 240.085 229.471 258.635 214.498 267.255C207.628 271.207 199.851 273.282 192.099 274.663C184.098 276.086 175.767 276.147 168.126 279.21C153.907 284.894 147.935 299.028 136.788 308.396C121.135 321.554 96.6678 320.86 78.5745 313.953C68.9852 310.298 59.5548 304.324 53.8944 295.56C48.2709 286.877 46.4345 276.348 41.4659 267.338C40.2441 265.143 36.6726 266.767 37.9238 268.972C42.539 277.316 44.4791 286.845 49.1454 295.14C53.8486 303.515 61.2023 309.691 69.5957 314.142C86.2468 322.96 106.955 325.242 124.924 319.341C133.047 316.69 139.673 311.776 145.328 305.431C150.53 299.588 154.832 292.841 160.974 287.882C168.634 281.71 177.453 280.691 186.836 279.412C195.204 278.259 203.641 276.563 211.413 273.146C227.632 266.026 236.434 251.099 236.031 233.464C235.677 218.393 227.504 205.247 214.268 198.197C199.223 190.176 183.262 191.831 167.469 196.361C161.948 197.933 156.395 199.593 150.711 200.434C144.043 201.413 138.13 199.992 132.034 197.263C122.894 193.206 114.314 188.719 104.053 188.768C88.1457 188.835 72.8998 196.751 61.089 207.012C49.1246 217.417 39.1843 231.453 36.1946 247.261C35.4823 250.984 35.3049 254.703 35.4829 258.454C35.6214 261.051 39.4883 260.34 39.3464 257.843Z" fill="#D7D7D7"/>
<path d="M60.3094 255.027C65.2653 235.894 82.8124 222.399 97.08 210.101C98.9882 208.464 96.5186 205.404 94.5995 207.071C79.8529 219.762 61.7799 233.865 56.6424 253.668C56.0147 256.081 59.6708 257.47 60.3094 255.027Z" fill="#D7D7D7"/>
<path d="M65.5123 262.684C81.4327 275.184 103.003 288.103 123.811 280.574C126.198 279.716 124.547 276.157 122.19 277.025C102.887 284.006 82.4295 270.964 67.7903 259.508C65.8044 257.935 63.5264 261.11 65.5123 262.684Z" fill="#D7D7D7"/>
<path d="M125.773 244.854C153.203 236.832 183.217 242.094 209.515 229.565C211.791 228.466 210.17 224.917 207.894 226.016C181.948 238.408 152.183 233.104 125.093 241.018C122.713 241.677 123.342 245.561 125.773 244.854Z" fill="#D7D7D7"/>
<path d="M127.683 247.171C139.147 248.74 149.31 254.717 160.039 258.627C170.739 262.526 181.594 263.668 192.353 259.215C194.684 258.236 193.063 254.688 190.732 255.666C168.54 264.86 149.336 246.185 128.025 243.278C125.522 242.919 125.199 246.853 127.683 247.171Z" fill="#D7D7D7"/>
<path d="M128.469 240.461C132.27 224.082 150.762 219.111 164.976 215.871C167.422 215.304 166.782 211.449 164.307 212.005C148.775 215.561 128.93 221.303 124.802 239.102C124.233 241.537 127.889 242.926 128.469 240.461Z" fill="#D7D7D7"/>
<path d="M118.786 213.021C111.083 220.483 106.469 229.961 101.367 239.225C100.849 240.172 100.87 241.285 101.817 241.971C102.58 242.522 104.038 242.46 104.556 241.513C109.468 232.581 113.87 223.225 121.278 216.021C123.08 214.311 120.599 211.281 118.786 213.021Z" fill="#D7D7D7"/>
<path d="M101.456 257.348C110.467 265.444 122.231 269.804 133.277 274.3C135.591 275.259 136.955 271.577 134.641 270.619C123.889 266.232 112.536 262.024 103.745 254.143C101.862 252.473 99.6021 255.689 101.456 257.348Z" fill="#D7D7D7"/>
<path d="M67.2345 262.719C65.5452 269.797 66.4443 277.634 68.3742 284.58C70.3116 291.596 73.7165 299.423 80.3095 303.24C82.4852 304.482 84.7632 301.307 82.5985 300.035C76.7723 296.67 73.7835 289.7 72.1265 283.458C70.5028 277.397 69.4298 270.299 70.9123 264.049C71.4704 261.643 67.8144 260.254 67.2345 262.719Z" fill="#D7D7D7"/>
<path d="M94.8775 280.769C94.9272 290.268 97.4138 301.473 105.901 306.93C108.004 308.279 110.311 305.114 108.19 303.725C100.884 299.041 98.8152 289.23 98.7689 281.073C98.7662 280 98.1154 279.055 96.9904 278.94C96.0012 278.908 94.8639 279.726 94.8775 280.769Z" fill="#D7D7D7"/>
<path d="M18.6289 214.355C12.6916 209.039 9.696 200.827 7.70603 193.323C5.67922 185.738 4.46837 177.752 4.34225 169.901C4.1793 161.968 4.81113 153.962 6.05153 146.114C7.24484 138.484 9.0856 130.456 13.4103 123.919C17.1074 118.356 21.561 114.982 28.2639 114.451C34.52 113.956 40.9002 114.746 47.0287 113.065C58.6668 109.842 64.3151 99.3735 68.9271 89.0906C74.57 76.4766 80.2163 63.7633 94.2757 58.9584C107.863 54.3471 123.31 56.4211 135.484 63.8141C147.27 70.9961 156.905 83.9801 157.186 98.254C157.417 109.695 148.848 116.971 140.985 123.871C132.172 131.625 124.369 140.256 124.8 152.777C125.082 160.117 127.824 166.761 130.424 173.52C131.442 176.175 132.641 179.333 131.523 182.168C129.856 186.306 124.568 188.601 120.883 190.35C118.618 191.42 120.228 194.998 122.504 193.899C128.081 191.276 135.35 187.505 135.879 180.499C136.3 174.592 132.468 168.817 130.754 163.358C128.601 156.564 127.674 149.253 130.441 142.507C132.615 137.183 136.74 132.984 140.922 129.174C148.977 121.842 158.646 114.84 160.694 103.373C163.097 89.9598 155.44 75.5987 145.9 66.7701C135.324 56.9547 120.675 51.8268 106.287 52.6575C91.2542 53.5173 79.0948 60.6678 71.7572 73.8931C65.6962 84.8448 62.542 100.827 50.7619 107.314C39.2451 113.63 24.5432 106.305 14.5047 116.285C8.43485 122.31 5.3927 130.428 3.5267 138.613C1.30933 148.376 0.386151 158.519 0.448105 168.524C0.507349 177.457 1.77209 186.467 4.1898 195.068C6.5004 203.327 9.87734 211.68 16.3728 217.471C18.2236 219.229 20.4832 216.013 18.6289 214.355Z" fill="#D7D7D7"/>
<path d="M117.297 87.5895C118.155 121.372 92.7504 155.436 57.924 157.937C55.4222 158.115 56.0915 161.981 58.5932 161.803C94.9983 159.184 122.12 123.277 121.188 87.8929C121.134 85.4276 117.235 85.0544 117.297 87.5895Z" fill="#D7D7D7"/>
<path d="M97.1798 85.962C92.6374 100.558 85.3858 114.452 76.1735 126.614C74.6582 128.632 77.8183 130.908 79.3629 128.902C88.8017 116.489 96.2538 102.234 100.887 87.3025C101.573 84.9106 97.9064 83.5515 97.1798 85.962Z" fill="#D7D7D7"/>
<path d="M44.2595 121.887C41.669 127.526 41.22 133.959 41.6238 140.071C42.0051 145.974 43.3285 152.125 46.2102 157.314C47.432 159.508 50.9742 157.873 49.7524 155.679C47.0951 150.875 45.9197 145.314 45.5029 139.867C45.0712 134.28 45.5802 128.406 47.9264 123.246C48.9866 120.926 45.3088 119.596 44.2595 121.887Z" fill="#D7D7D7"/>
<path d="M18.5953 135.856C17.2969 145.391 17.2559 155.224 18.6318 164.745C19.9334 173.836 22.6212 183.508 29.0205 190.369C30.7396 192.212 33.7667 189.716 32.0475 187.873C25.9348 181.32 23.5888 172.076 22.4018 163.395C21.1664 154.395 21.2859 145.161 22.4868 136.16C22.8395 133.677 18.9296 133.334 18.5953 135.856Z" fill="#D7D7D7"/>
<path d="M107.003 168.926C98.7428 176.718 87.9772 181.638 77.0076 184.138C66.7373 186.461 55.4184 187.023 45.5132 183.05C43.1881 182.121 41.8236 185.803 44.1487 186.732C54.6884 190.973 66.7768 190.496 77.7061 188.015C89.3238 185.386 100.752 180.209 109.513 171.967C111.314 170.256 108.845 167.197 107.003 168.926Z" fill="#D7D7D7"/>
<path d="M83.6308 166.628C77.022 171.046 73.3099 177.91 69.7848 184.811C69.2963 185.769 70.0467 186.985 70.9268 187.311C72.0122 187.713 72.9742 187.098 73.4224 186.159C76.6597 179.855 80.0804 173.687 86.0821 169.647C86.9635 169.069 86.9928 167.64 86.3754 166.875C85.6625 166.008 84.5232 166.021 83.6308 166.628Z" fill="#D7D7D7"/>
<path d="M97.3145 113.145C97.311 121.886 96.454 130.68 97.3919 139.402C97.6621 141.914 101.518 141.233 101.248 138.721C100.358 130.318 101.213 121.892 101.206 113.448C101.203 112.375 100.552 111.431 99.4274 111.315C98.4491 111.254 97.3118 112.072 97.3145 113.145Z" fill="#D7D7D7"/>
<path d="M76.4206 92.6389C78.3177 101.114 80.2149 109.588 82.1121 118.063C82.6715 120.515 86.5165 119.863 85.968 117.382C84.0709 108.907 82.1737 100.432 80.2765 91.9577C79.7465 89.5169 75.8721 90.1578 76.4206 92.6389Z" fill="#D7D7D7"/>
</svg>
