<svg width="150" height="138" viewBox="0 0 150 138" fill="none" xmlns="http://www.w3.org/2000/svg">
<path d="M42.3718 100.265C68.8532 111.94 106.435 115.314 129.52 94.6568C130.151 94.0969 130.047 93.1121 129.529 92.5046C123.931 86.0787 115.174 82.648 107.351 79.7846C98.0075 76.3511 88.8212 74.1013 78.8098 74.0089C69.5813 73.9202 61.4138 75.7328 53.1791 79.9441C49.0512 82.0438 45.1085 84.5024 41.2378 87.0307C39.5167 88.1664 37.7835 89.3231 36.0714 90.492C34.8696 91.3111 33.2407 91.9957 32.5007 93.2775C32.0639 94.034 32.3825 94.8904 33.0521 95.333C35.9764 97.3576 39.2865 98.5682 42.3718 100.265C44.0781 101.195 45.6157 98.58 43.8883 97.6387C40.803 95.9415 37.4929 94.7309 34.5775 92.7395C34.7643 93.4357 34.9511 94.1319 35.129 94.795C35.6264 93.9334 38.064 92.8192 39.0272 92.1705C40.6367 91.0824 42.2671 90.0065 43.8855 88.9516C47.3817 86.6835 50.95 84.4849 54.6735 82.6001C62.6155 78.5559 70.4449 76.9404 79.3451 77.0637C88.6366 77.1888 97.1129 79.3088 105.79 82.4412C113.339 85.1468 121.952 88.4383 127.367 94.6466C127.367 93.9182 127.376 93.2229 127.376 92.4945C116.254 102.435 101.177 106.115 86.5697 106.311C72.0165 106.51 57.2087 103.508 43.8673 97.6266C42.118 96.8688 40.5805 99.4834 42.3718 100.265Z" fill="#DBDBDB"/>
<path d="M37.6628 95.165C53.2707 92.6049 69.1179 91.864 84.9157 92.1313C91.7172 92.2477 98.4839 92.0358 105.286 91.9566C112.392 91.8848 119.736 92.0338 126.479 94.5821C128.298 95.268 129.072 92.3247 127.253 91.6389C120.753 89.2031 113.649 88.8836 106.795 88.9054C99.4965 88.9221 92.2357 89.2129 84.9345 89.0882C68.8536 88.8256 52.7953 89.6407 36.9132 92.2387C34.9577 92.5666 35.7614 95.4962 37.6628 95.165Z" fill="#DBDBDB"/>
<path d="M118.125 94.7747C101.833 98.2286 85.2686 102.057 68.4979 100.416C66.5626 100.223 66.5771 103.258 68.5124 103.45C85.5208 105.117 102.372 101.229 118.896 97.7132C120.813 97.3068 120.03 94.3894 118.125 94.7747Z" fill="#DBDBDB"/>
<path d="M94.0144 82.9274C84.4528 81.8618 75.0681 83.1118 65.6285 84.5542C63.6972 84.8401 64.501 87.7697 66.4112 87.4717C75.6309 86.0704 84.7381 84.9124 94.0409 85.9406C95.973 86.1875 95.9375 83.1411 94.0144 82.9274Z" fill="#DBDBDB"/>
<path d="M64.0541 95.973C59.97 95.5203 55.9361 94.5922 51.8083 94.5065C50.9834 94.4785 50.2968 95.2308 50.3024 96.0466C50.2959 96.8833 51.0067 97.5459 51.8438 97.5529C55.9716 97.6386 60.0055 98.5667 64.0896 99.0194C64.9112 99.1016 65.6044 98.2409 65.5955 97.4793C65.5721 96.5973 64.8637 96.0762 64.0541 95.973Z" fill="#DBDBDB"/>
<path d="M15.6889 72.6721C44.6886 71.1475 79.5458 57.1466 90.8857 28.2792C91.2173 27.462 90.4798 26.7 89.8004 26.4198C81.7836 23.1642 72.1984 24.1303 63.8506 25.1384C54.6261 26.2567 46.0397 28.1637 37.589 32.1663C29.1052 36.1779 22.3479 41.3263 16.6888 48.8459C13.7821 52.7152 11.2505 56.8572 8.8241 61.0598C7.74434 62.93 6.6735 64.8334 5.61477 66.7157C4.87148 68.0517 3.72462 69.4068 3.64286 70.9566C3.60725 71.5525 4.13693 72.3346 4.78391 72.4279C8.42804 72.9629 12.031 72.5495 15.6889 72.6721C17.6428 72.7355 17.6284 69.7012 15.6745 69.6378C12.2996 69.5105 8.9013 69.958 5.54588 69.5057C5.92919 70.0072 6.30363 70.4755 6.68695 70.977C6.74522 70.002 8.54639 67.7078 9.14086 66.6782C10.1389 64.9009 11.137 63.1236 12.1771 61.3707C14.3819 57.6004 16.6918 53.8908 19.3261 50.3965C24.7369 43.2099 31.4294 38.4163 39.5299 34.6317C47.6182 30.8682 55.8997 29.1494 64.7053 28.1254C72.58 27.2084 81.5174 26.3446 89.0352 29.3962C88.6705 28.7654 88.3147 28.1677 87.95 27.5369C82.4871 41.4177 70.6298 51.4666 57.6751 58.2202C44.7657 64.944 30.2059 68.8937 15.6955 69.65C13.7319 69.7491 13.7463 72.7833 15.6889 72.6721Z" fill="#DBDBDB"/>
<path d="M8.85113 70.4335C22.0194 60.8333 36.2018 52.8272 50.871 45.7746C56.9173 42.8774 62.7573 39.6089 68.7049 36.5426C74.6856 33.4674 81.0214 30.4572 87.7752 29.7335C89.6911 29.5228 89.6977 26.5008 87.7608 26.6993C74.4942 28.1176 63.1343 36.5765 51.3799 42.1739C36.0111 49.467 21.1049 57.7557 7.34457 67.7986C5.78608 68.9441 7.29264 71.579 8.85113 70.4335Z" fill="#DBDBDB"/>
<path d="M80.6768 33.6763C67.8125 44.0124 54.8407 54.8748 39.2965 60.9179C37.4929 61.6137 38.2635 64.5522 40.0792 63.8353C56.1571 57.5961 69.5002 46.5278 82.8206 35.8387C84.3403 34.6147 82.1843 32.4734 80.6768 33.6763Z" fill="#DBDBDB"/>
<path d="M54.164 33.8071C45.1319 37.1658 37.3233 42.4357 29.5195 47.9886C27.94 49.122 29.4465 51.7569 31.0261 50.6235C38.5912 45.2411 46.1799 40.0123 54.9467 36.7245C56.7713 36.0408 55.9885 33.1234 54.164 33.8071Z" fill="#DBDBDB"/>
<path d="M33.3127 58.9482C29.341 60.4375 25.2115 61.4715 21.3707 63.3166C20.6647 63.6655 20.3953 64.7147 20.79 65.3909C21.2566 66.1366 22.1049 66.3182 22.8652 65.9726C23.8065 65.5075 24.5425 65.2039 25.4443 64.856C26.4123 64.4903 27.3893 64.1578 28.3663 63.8253C30.2749 63.1901 32.1803 62.6091 34.0712 61.9077C34.816 61.6373 35.4153 60.8906 35.1388 60.0585C34.9552 59.3081 34.1239 58.6601 33.3127 58.9482Z" fill="#DBDBDB"/>
</svg>
