<svg width="218" height="260" viewBox="0 0 218 260" fill="none" xmlns="http://www.w3.org/2000/svg">
<path d="M81.8932 219.519C65.8675 226.24 47.3386 211.348 37.8763 199.741C32.9824 193.743 28.1629 186.227 27.7681 178.293C27.6054 175.298 28.2863 172.302 30.1886 169.914C32.4015 167.163 36.8991 164.578 40.4556 164.794C44.7002 165.062 45.3104 170.741 45.7982 173.995C46.4572 178.338 46.7144 182.901 48.2555 187.036C51.442 195.551 62.4067 200.233 70.7822 196.568C79.0411 192.942 81.9108 182.423 78.5959 174.491C75.0068 165.873 67.0747 159.333 60.1952 153.35C53.5628 147.587 44.0741 141.374 41.3023 132.612C39.2887 126.169 40.6095 119.283 43.6717 113.393C44.2144 112.368 46.1634 107.737 47.7597 107.723C47.8506 107.735 48.9195 109.757 49.1804 110.34C52.3518 117.909 52.7501 127.335 58.3197 133.734C63.538 139.732 73.4319 141.615 77.8138 133.921C82.2731 126.072 80.1242 117.296 77.3026 109.416C75.5783 104.607 73.3453 98.7359 75.8386 93.7932C77.2986 90.9261 83.3336 85.3831 87.0894 87.5445C91.0011 89.7835 89.3439 97.0852 92.3752 100.246C97.8134 105.932 106.378 94.3961 107.354 89.9606C108.51 84.5136 106.822 78.7844 105.227 73.5867C103.37 67.5464 101.357 61.4285 100.719 55.0888C100.015 48.2304 101.675 41.9012 106.101 36.5285C109.79 32.0513 115.052 29.1672 120.473 27.2036C125.556 25.3311 131.925 23.8073 137.173 25.9671C141.928 27.9459 143.482 32.1193 141.442 36.6077C138.64 42.8215 130.246 49.9747 132.95 57.5052C134.204 60.9788 137.988 63.8014 141.635 64.0957C145.659 64.4156 149.548 62.3369 152.944 60.4662C157.429 57.9719 161.705 54.9204 166.541 53.1518C171.767 51.2532 176.793 52.5575 181.588 55.1067C191.282 60.257 198.538 71.8021 191.852 82.1691C185.477 92.0431 173.001 90.7857 162.962 93.4285C152.741 96.1103 135.746 110.248 149.94 119.193C155.347 122.597 161.775 124.341 167.763 126.448C173.426 128.426 180.258 130.467 184.577 134.884C188.336 138.731 187.379 145.41 182.596 148.112C177.359 151.074 169.761 148.488 164.488 146.899C151.916 143.165 134.362 134.198 121.726 142.121C113.523 147.264 111.081 157.899 113.737 166.83C116.758 176.979 126.899 184.619 137.454 180.225C142.355 178.197 146.525 174.575 151.688 173.195C156.513 171.906 162.979 173.183 166.776 176.563C172.733 181.795 167.612 189.995 163.04 194.162C156.552 200.095 148.018 202.386 139.524 200.165C133.109 198.46 122.261 193.544 116.994 200.085C111.08 207.404 118.233 214.074 122.905 219.281C126.028 222.779 126.776 226.486 123.163 230.095C119.991 233.275 115.085 233.293 110.93 232.584C102.842 231.18 94.461 227.104 88.0248 221.989C86.2174 220.539 83.7708 223.239 85.6041 224.702C92.2874 230.037 100.746 234.216 109.147 235.97C117.016 237.622 127.511 235.821 129.242 226.354C130.869 217.548 119.143 214.786 118.489 206.981C117.489 195.313 135.456 203.06 140.78 204.222C148.922 206.041 157.481 203.309 163.893 198.181C169.166 193.974 174.484 186.941 172.767 179.773C170.801 171.606 159.787 168.065 152.392 169.369C147.06 170.309 142.759 173.607 138.028 176.01C131.87 179.129 125.353 178.28 120.772 172.761C113.939 164.47 114.514 149.442 125.054 144.426C131.886 141.19 140.34 143.359 147.249 145.31C155.002 147.519 162.563 150.635 170.496 152.222C176.132 153.344 182.894 153.7 187.089 149.054C190.894 144.861 191.788 138.377 188.286 133.752C184.511 128.764 177.834 126.347 172.197 124.252C165.78 121.899 158.975 120.13 152.958 116.843C148.046 114.138 146.26 110.691 150.117 106.006C153.158 102.308 157.161 99.1527 161.7 97.5919C166.835 95.8101 172.324 95.532 177.643 94.4891C187.879 92.4944 197.376 85.8586 198.051 74.6033C198.676 64.4891 190.986 55.771 182.384 51.4883C178.018 49.3147 173.018 47.8289 168.141 48.8973C163.302 49.9526 158.948 52.7061 154.762 55.1871C151.081 57.3693 145.704 61.4593 141.108 60.401C136.264 59.3169 135.254 54.7669 137.075 50.8492C140.071 44.3759 148.633 37.015 145.383 29.148C141.049 18.6371 126.675 20.8696 118.389 24.0939C107.73 28.2414 98.4303 36.3033 97.0435 48.2725C96.3566 54.2765 97.6425 60.2915 99.2004 66.0857C100.889 72.3336 103.668 78.6711 103.995 85.1797C104.171 88.4081 103.491 91.5985 101.277 94.0903C100.319 95.1675 97.5226 98.049 95.8092 97.973C93.9661 97.8972 93.7646 94.98 93.4107 93.4763C92.1394 88.1486 90.0623 82.2901 83.3042 83.8791C78.6345 84.9862 74.0611 88.44 72.1637 92.9024C70.2015 97.4296 71.1606 102.472 72.5599 107.022C74.0376 111.805 76.4752 116.418 76.6557 121.462C76.8076 125.391 76.3131 130.422 73.6078 133.511C70.1906 137.443 63.9545 134.662 61.0268 131.424C58.0732 128.172 56.8677 123.233 55.6641 119.137C54.6177 115.638 52.3261 101.287 45.8315 104.561C41.6314 106.679 39.1428 113.631 37.8935 117.769C36.2318 123.19 36.1417 129.103 38.0621 134.495C41.1582 143.192 50.0498 149.367 56.7602 155.169C63.8087 161.269 73.4425 168.494 75.9175 177.982C77.1746 182.817 75.4753 188.77 71.4721 191.861C66.6658 195.587 59.7195 194.363 55.2464 190.711C47.8476 184.664 51.2478 173.405 47.1933 165.591C43.2822 158.01 33.2709 161.509 28.3892 166.298C23.5593 171.049 23.316 178.051 25.0694 184.234C29.6758 200.579 45.3625 215.513 60.7955 221.772C67.8105 224.617 75.7821 225.866 82.9522 222.863C85.2086 222.044 84.0585 218.622 81.8932 219.519Z" fill="#DCD3D7"/>
</svg>
