<svg width="105" height="104" viewBox="0 0 105 104" fill="none" xmlns="http://www.w3.org/2000/svg">
<path d="M88.6238 69.069C91.3536 60.5779 91.1068 50.109 88.0758 41.7367C85.9847 35.974 81.1996 28.4673 73.9471 30.0748C67.5954 31.4918 64.952 39.1219 65.0519 44.8995C65.1741 51.389 67.0408 58.26 70.4053 63.8364C72.062 66.585 74.3001 69.2826 77.2751 70.6937C80.3982 72.1811 83.6921 71.8818 86.7722 70.4396C88.4479 69.6575 86.9307 67.2283 85.2706 67.9937C74.2265 73.1389 68.8316 54.9482 68.0593 47.346C67.5662 42.4552 68.2735 36.0851 73.1288 33.4205C78.6524 30.3783 83.3723 37.3527 84.9972 41.6729C88.1066 49.9617 88.55 59.9871 85.8358 68.4615C85.2748 70.1958 88.0638 70.8356 88.6238 69.069Z" fill="#E1D4DB"/>
<path d="M86.4359 68.4923C82.9359 62.7258 81.3184 56.0574 79.5139 49.6216C79.0209 47.8399 76.2619 48.6727 76.7705 50.4377C78.6468 57.0979 80.3852 64.0054 84.005 69.9785C84.9448 71.5517 87.4081 70.0644 86.4359 68.4923Z" fill="#E1D4DB"/>
<path d="M66.9998 76.0898C62.5936 72.9269 58.0943 69.8965 53.4091 67.1312C48.0636 63.9658 42.0933 60.4965 35.8617 59.5455C33.6653 59.2107 31.2201 59.2076 29.3351 60.547C27.2601 62.0219 26.694 64.6308 26.7533 67.0416C26.8395 70.828 27.9356 74.8089 30.2642 77.8113C32.9305 81.2564 36.7437 83.5799 40.7884 85.0217C49.4505 88.0975 61.5298 87.5668 66.9135 79.0235C67.9012 77.4699 65.3498 76.1424 64.3778 77.6793C60.1824 84.355 50.5766 84.7583 43.7354 82.9523C39.9637 81.9552 36.2794 80.1295 33.5677 77.3012C31.1239 74.7558 29.9833 71.4241 29.6641 67.9528C29.5639 66.8225 29.5265 65.6254 29.8646 64.5297C30.0698 63.8431 30.4878 63.2306 30.8836 62.9427C32.1337 62.0123 34.0152 62.1142 35.7254 62.4321C41.2785 63.4372 46.5219 66.4439 51.3376 69.2375C54.1746 70.8959 56.95 72.6534 59.6783 74.461C60.7369 75.1721 61.7955 75.8833 62.8551 76.6267C63.3025 76.9525 63.7489 77.246 64.1963 77.5718C64.5936 77.8506 64.8919 78.0678 65.041 78.1764C66.5313 79.23 68.5068 77.1591 66.9998 76.0898Z" fill="#E1D4DB"/>
<path d="M64.7903 77.4073C58.6204 76.3571 52.769 74.0984 46.819 72.3126C45.0537 71.7859 44.4123 74.5753 46.1776 75.102C52.1276 76.8879 57.9791 79.1465 64.1489 80.1967C65.9562 80.5115 66.6132 77.7054 64.7903 77.4073Z" fill="#E1D4DB"/>
<path d="M55.5999 47.1115C54.4287 39.7001 52.9264 31.5382 48.0752 25.5396C45.1106 21.8773 40.7039 18.1801 35.9479 17.2953C33.9122 16.923 31.783 17.1852 30.2089 18.628C28.3988 20.2888 27.9288 22.8622 27.8076 25.1978C27.5127 31.2957 31.3772 36.8077 35.788 40.6343C40.6149 44.8202 46.9203 48.133 53.3955 48.5905C55.229 48.7102 55.1232 45.8474 53.3063 45.7434C48.5843 45.4243 43.8966 43.0963 40.0879 40.4001C35.9642 37.4711 32.112 33.3837 30.9334 28.3206C30.186 25.1382 30.5254 19.4275 35.0301 20.045C38.965 20.5673 42.6585 23.7205 45.2251 26.5696C50.1416 32.0642 51.6252 40.1457 52.7362 47.1866C53.0194 48.9911 55.8831 48.9161 55.5999 47.1115Z" fill="#E1D4DB"/>
<path d="M53.8799 44.9317C49.9761 41.267 46.4975 37.2164 42.5937 33.5517C41.2591 32.2988 39.2837 34.3697 40.635 35.6382C44.5387 39.3029 48.0174 43.3536 51.9212 47.0183C53.2725 48.2868 55.2312 46.2003 53.8799 44.9317Z" fill="#E1D4DB"/>
</svg>
