<svg width="206" height="292" viewBox="0 0 206 292" fill="none" xmlns="http://www.w3.org/2000/svg">
<path d="M250.848 -47.9992C267.979 -22.1863 281.276 6.39136 294.497 34.374C300.249 46.5391 305.584 58.9836 309.758 71.8009C313.623 83.7353 316.914 96.4976 316.365 109.124C316.113 115.139 315.262 124.177 308.704 126.786C303.799 128.733 297.763 126.758 292.965 125.368C284.494 122.884 270.551 116.676 264.682 126.89C261.502 132.443 262.181 139.248 263.398 145.29C265.065 153.452 267.874 161.333 270.033 169.327C272.117 177.088 274.305 185.91 272.141 193.889C269.931 201.979 261.983 207.453 253.682 207.516C244.127 207.571 235.445 201.033 228.076 195.675C221.134 190.595 214.089 184.577 205.757 182C197.239 179.385 189.79 183.073 183.571 188.843C175.346 196.437 169.337 206.139 162.602 214.996C155.829 223.918 148.655 231.334 138.428 236.234C130.551 240.006 117.387 244.61 110.479 236.686C103.002 228.092 106.671 213.26 109.473 203.523C113.061 191.043 118.268 179.054 123.093 167.038C125.01 162.248 126.881 157.449 128.5 152.576C128.935 151.237 127.53 150.039 126.312 150.086C117.687 150.447 108.855 149.172 100.496 147.096C92.3224 145.058 82.1769 141.878 76.8313 134.845C70.5452 126.585 77.4 116.761 84.1589 111.316C92.9695 104.177 103.811 99.8353 113.805 94.6479C123.956 89.3954 135.398 82.8773 139.648 71.5681C140.056 70.4893 139.775 69.3459 138.659 68.7612C127.282 62.6535 114.69 58.1646 104.51 50.0476C100.648 46.9829 96.1242 42.6264 96.4882 37.2615C97.007 29.6559 105.987 24.0975 111.866 20.8941C121.971 15.3906 133.224 12.7497 144.244 9.82072C152.002 7.74066 164.075 6.68881 166.524 -2.85236C167.079 -5.03771 166.231 -6.12474 164.928 -7.71344C162.683 -10.5286 163.617 -14.2576 163.677 -17.7256C163.683 -19.585 163.279 -22.5412 164.337 -24.2157C165.486 -26.1133 168.887 -26.8136 170.829 -27.4661C182.972 -31.6697 195.581 -34.2096 207.995 -37.586C214.87 -39.4794 221.97 -40.6756 228.911 -42.411C236.307 -44.249 243.666 -46.2636 251.025 -48.2783C253.608 -48.9964 252.291 -52.9559 249.69 -52.2657C236.477 -48.6375 223.218 -45.2603 209.828 -42.32C203.463 -40.9291 197.183 -38.9898 190.864 -37.4688C184.546 -35.9479 178.218 -34.3804 172.049 -32.2739C167.543 -30.7545 161.15 -29.4658 159.866 -24.0909C159.228 -21.3662 159.521 -18.3355 159.451 -15.5463C159.4 -12.1248 158.764 -8.67498 160.971 -5.79474C161.371 -5.25585 162.469 -4.57811 162.488 -3.94591C162.613 -1.40786 158.007 1.71076 156.158 2.38177C150.863 4.34812 144.934 5.36672 139.452 6.81258C127.726 9.89092 115.861 13.1832 105.535 19.8026C99.9723 23.359 93.7152 28.7104 92.4517 35.5636C91.4926 40.7617 93.9534 45.529 97.3887 49.2821C107.695 60.5415 123.634 65.576 136.769 72.5654C136.423 71.6267 136.124 70.6972 135.779 69.7585C131.409 81.4304 118.674 87.522 108.234 92.7655C97.5711 98.1579 85.6154 103.003 77.2814 111.88C71.4252 118.133 67.4418 127.368 72.101 135.425C76.6298 143.287 86.3117 147.22 94.5508 149.779C104.696 152.959 115.797 154.735 126.449 154.27C125.722 153.424 125.015 152.607 124.261 151.78C120.272 163.842 114.888 175.385 110.425 187.28C106.342 198.236 102 210.01 101.971 221.845C101.957 231.533 105.328 242.064 115.751 244.575C125.412 246.909 136.048 242.502 144.324 237.818C154.28 232.213 161.202 223.755 167.909 214.675C174.551 205.679 180.94 195.037 190.309 188.614C198.926 182.694 207.26 186.359 215.15 191.651C223.356 197.176 230.886 203.919 239.862 208.244C248.131 212.235 257.12 213.082 265.331 208.482C272.287 204.599 276.172 197.809 276.811 189.961C278.217 172.527 268.249 156.768 266.523 139.774C266.014 134.912 266.431 127.455 272.145 125.814C277.19 124.378 283.356 126.91 288.117 128.366C298.505 131.546 312.388 135.494 317.807 122.678C321.771 113.294 320.695 101.794 318.98 92.0517C316.627 78.5819 312.184 65.5417 307.026 52.939C302.026 40.6338 296.236 28.6546 290.233 16.7779C282.663 1.71361 275.558 -13.6208 267.394 -28.3685C263.247 -35.8399 258.849 -43.1437 254.098 -50.252C252.822 -52.5845 249.339 -50.2571 250.848 -47.9992Z" fill="#DBDBDB"/>
<path d="M248.648 -52.3759C240.429 -15.5886 222.688 18.4085 206.498 52.1347C198.019 69.779 189.8 87.5719 181.032 105.086C171.782 123.568 162.356 141.966 153.413 160.606C148.52 170.772 143.776 181.041 139.302 191.411C137.069 196.573 134.902 201.772 132.827 206.99C130.669 212.384 129.227 217.945 127.116 223.349C126.162 225.841 129.901 227.697 130.883 225.186C132.587 220.741 133.723 216.11 135.446 211.692C137.307 206.939 139.234 202.224 141.235 197.499C145.236 188.05 149.461 178.693 153.835 169.438C162.759 150.529 172.259 131.88 181.62 113.202C190.74 95.0089 199.414 76.6299 208.18 58.2694C216.372 41.0994 224.834 24.0315 232.523 6.59235C240.769 -12.1861 248.242 -31.4566 252.711 -51.5427C253.358 -54.193 249.239 -54.9889 248.648 -52.3759Z" fill="#DBDBDB"/>
<path d="M171.346 187.859C170.368 180.124 169.595 172.334 169.016 164.534C168.353 155.702 167.745 146.712 168.457 137.888C168.621 135.843 166.351 134.497 164.82 136.125C154.667 146.863 142.913 155.929 132.945 166.825C131.126 168.807 134.3 171.565 136.119 169.583C146.086 158.687 157.841 149.622 167.994 138.884C166.785 138.28 165.547 137.696 164.357 137.12C163.608 146.13 164.123 155.222 164.805 164.203C165.393 172.198 166.176 180.184 167.182 188.142C167.502 190.791 171.685 190.536 171.346 187.859Z" fill="#DBDBDB"/>
<path d="M222.407 171.275C204.319 145.779 198.903 115.484 194.128 85.2439C193.949 84.0726 192.711 82.7627 191.383 83.3682C171.208 92.8597 150.622 101.375 130.382 110.709C127.939 111.818 129.246 115.824 131.717 114.696C151.957 105.363 172.543 96.8471 192.718 87.3556C191.806 86.7149 190.885 86.1206 189.973 85.4799C194.879 116.398 200.427 147.493 218.953 173.584C220.471 175.795 223.972 173.496 222.407 171.275Z" fill="#DBDBDB"/>
<path d="M250.521 110.827C234.026 87.8959 226.688 59.6106 219.669 32.6453C219.332 31.2975 217.584 30.8527 216.525 31.5602C198.167 43.5884 176.051 48.1262 157.701 60.1078C155.454 61.5694 157.755 65.0725 160.03 63.5922C178.361 51.5827 200.495 47.0728 218.854 35.0447C217.813 34.6923 216.753 34.312 215.711 33.9597C222.852 61.2875 230.339 89.9166 247.039 113.155C248.613 115.329 252.095 113.001 250.521 110.827Z" fill="#DBDBDB"/>
<path d="M270.23 62.0451C261.298 36.5597 249.068 12.4718 239.141 -12.6315C238.759 -13.626 237.568 -14.4431 236.481 -13.9587C217.457 -5.63963 195.807 -6.61556 177.129 2.76311C174.714 3.97387 177.07 7.43971 179.457 6.24757C197.737 -2.94481 219.136 -1.80131 237.797 -9.99922C236.895 -10.4447 236.039 -10.8809 235.137 -11.3264C245.073 13.7305 257.294 37.8649 266.226 63.3503C267.122 65.897 271.108 64.5639 270.23 62.0451Z" fill="#DBDBDB"/>
</svg>
