<svg width="251" height="256" viewBox="0 0 251 256" fill="none" xmlns="http://www.w3.org/2000/svg">
<path d="M210.521 150.44C199.799 146.75 186.51 140.178 186.39 127.034C186.321 118.114 191.439 109.886 193.898 101.517C198.624 85.4167 192.518 67.783 182.23 55.2052C171.673 42.2798 156.199 33.1545 139.694 30.4096C131.587 29.0487 123.207 29.2835 115.258 31.399C107.276 33.5156 99.6436 37.467 92.5869 41.7078C76.8851 51.1791 62.9357 63.8656 51.6813 78.3282C40.6295 92.5416 31.6899 109.052 28.3626 126.905C26.8394 135.147 26.4941 143.773 27.9681 152.065C29.7537 162.032 34.6561 171.219 41.0836 178.948C54.241 194.754 73.8894 205.317 93.7867 209.865C113.634 214.365 134.037 209.213 148.428 194.586C155.945 186.946 160.962 177.556 165.832 168.122C168.306 163.348 171.239 158.251 176.657 156.491C181.995 154.75 187.489 156.453 192.429 158.579C196.681 160.435 200.721 162.752 204.972 164.575C205.727 164.908 206.448 164.674 206.913 163.979C208.966 160.789 211.418 157.909 212.697 154.273C213.29 152.538 210.501 151.898 209.908 153.634C208.75 156.974 206.277 159.708 204.393 162.651C205.051 162.452 205.676 162.254 206.334 162.055C198.407 158.664 190.568 152.906 181.598 152.933C170.443 152.981 165.847 161.855 161.377 170.629C156.601 179.962 150.874 188.937 142.882 195.88C135.252 202.503 125.802 206.852 115.788 208.159C95.275 210.853 73.3175 202.048 57.0383 189.969C48.7162 183.79 41.3524 176.155 36.3549 167.035C31.6835 158.505 29.7064 149.144 29.9046 139.438C30.2534 121.615 37.4404 104.464 47.0337 89.698C57.091 74.2371 70.2993 60.6351 85.2822 49.9237C98.6975 40.3471 114.207 31.9831 131.11 32.432C147.948 32.8831 164.355 40.748 176.095 52.6804C187.486 64.2838 195.448 81.7449 191.738 98.2342C189.849 106.666 185.148 114.281 183.798 122.874C182.343 132.247 186.8 140.671 194.465 146.013C199.133 149.265 204.446 151.395 209.798 153.216C211.631 153.838 212.256 151.033 210.521 150.44Z" fill="#E1D4DB"/>
<path d="M200.642 151.435C194.564 148.682 188.228 146.438 182.409 143.143C179.574 141.549 176.891 139.659 174.584 137.336C172.008 134.698 170.287 131.449 168.55 128.217C163.129 117.978 160.246 106.573 154.155 96.679C142.778 78.2418 121.45 66.7932 100.159 64.8C88.2715 63.6892 76.2525 65.6268 65.5389 70.988C63.8809 71.8181 65.3981 74.2473 67.0404 73.4339C86.4117 63.7646 109.969 66.2523 128.525 76.5748C138.396 82.0734 146.947 89.8811 152.631 99.7071C158.297 109.485 161.122 120.584 166.533 130.5C169.865 136.612 173.768 141.28 179.777 144.943C185.917 148.666 192.776 151.022 199.296 153.972C200.972 154.728 202.334 152.207 200.642 151.435Z" fill="#E1D4DB"/>
<path d="M168.208 143.158C135.275 138.055 100.153 137.522 69.8745 122.068C61.0874 117.587 53.0864 111.835 46.2262 104.767C44.9542 103.447 42.9955 105.534 44.2674 106.853C69.0622 132.328 105.675 138.059 139.373 142.247C148.785 143.421 158.21 144.481 167.583 145.931C169.373 146.23 170.014 143.441 168.208 143.158Z" fill="#E1D4DB"/>
<path d="M151.802 125.464C131.331 99.9975 98.0948 86.791 66.1493 84.2792C64.3148 84.1271 64.4206 86.9899 66.2384 87.1263C97.0476 89.5447 129.607 102.368 149.354 126.935C150.484 128.372 152.932 126.902 151.802 125.464Z" fill="#E1D4DB"/>
<path d="M123.722 119.202C110.451 117.358 98.0453 111.584 86.9044 104.329C85.367 103.325 84.0215 105.862 85.5588 106.865C96.8812 114.228 109.583 120.123 123.081 121.992C124.886 122.242 125.56 119.451 123.722 119.202Z" fill="#E1D4DB"/>
<path d="M157.578 154.815C143.364 159.025 128.736 162.471 113.827 162.072C97.8629 161.625 83.1532 156.232 69.0671 149.038C59.2432 144.024 49.2428 138.027 43.3869 128.385C42.4304 126.796 39.9838 128.299 40.9403 129.888C46.0273 138.243 54.0951 144.059 62.4853 148.795C70.2978 153.177 78.502 157.142 86.9963 160.028C101.367 164.946 116.46 166.02 131.467 163.841C140.606 162.497 149.554 160.221 158.394 157.591C160.158 157.049 159.344 154.306 157.578 154.815Z" fill="#E1D4DB"/>
<path d="M152.962 166.152C142.667 177.653 129.144 185.84 113.896 188.61C96.5548 191.737 78.9581 187.748 64.8325 177.219C56.3102 170.852 49.0521 162.97 41.327 155.687C39.9923 154.434 38.0169 156.505 39.3682 157.774C53.7341 171.322 67.3166 186.742 87.544 190.972C103.077 194.217 119.336 192.209 133.489 184.989C141.681 180.81 148.931 174.96 155.064 168.125C156.283 166.726 154.198 164.768 152.962 166.152Z" fill="#E1D4DB"/>
<path d="M107.826 174.716C97.6822 174.991 87.4768 172.79 79.4211 166.326C77.9924 165.174 76.0337 167.26 77.4623 168.413C86.1166 175.375 96.9635 177.896 107.9 177.58C109.761 177.536 109.67 174.657 107.826 174.716Z" fill="#E1D4DB"/>
<path d="M133.517 150.692C121.156 150.52 108.99 148.268 96.9996 145.428C95.205 144.999 94.5637 147.789 96.3583 148.217C108.577 151.115 121.003 153.391 133.59 153.556C135.453 153.578 135.364 150.731 133.517 150.692Z" fill="#E1D4DB"/>
<path d="M70.6229 136.148C64.2816 133.241 58.0227 130.38 53.3222 125.056C52.0972 123.687 50.1385 125.773 51.3634 127.143C56.2318 132.655 62.7546 135.67 69.3098 138.683C70.9527 139.44 72.3149 136.919 70.6229 136.148Z" fill="#E1D4DB"/>
<path d="M66.8919 103.347C60.952 100.848 55.3174 97.7569 49.3618 95.2749C47.6718 94.5677 46.3263 97.1043 48.0162 97.8115C53.9562 100.31 59.5908 103.402 65.5464 105.884C67.2521 106.574 68.5986 104.07 66.8919 103.347Z" fill="#E1D4DB"/>
<path d="M179.672 115.2C176.399 101.702 174.074 87.4292 165.381 76.1284C156.233 64.243 142.636 55.6246 128.13 52.055C119.693 49.9759 110.934 49.5102 102.294 50.2228C100.453 50.3787 100.542 53.2258 102.383 53.0699C121.909 51.4598 140.289 56.6872 155.185 69.5715C161.942 75.4122 167.071 82.5193 170.231 90.8874C173.287 98.9998 174.868 107.613 176.928 116.016C177.373 117.815 180.1 116.983 179.672 115.2Z" fill="#E1D4DB"/>
<path d="M180.501 77.0393C176.78 70.4055 173.071 63.658 168.033 57.892C162.893 51.9997 156.415 47.8341 148.943 45.53C147.194 44.9867 146.552 47.7761 148.302 48.3195C155.545 50.5661 161.652 54.7597 166.545 60.5465C171.168 65.9857 174.574 72.3542 178.054 78.5423C178.963 80.1488 181.394 78.6625 180.501 77.0393Z" fill="#E1D4DB"/>
</svg>
